<?xml version="1.0" encoding="utf-8"?>
<!-- Generator: Adobe Illustrator 24.1.1, SVG Export Plug-In . SVG Version: 6.00 Build 0)  -->
<svg version="1.1" id="Layer_1" xmlns="http://www.w3.org/2000/svg" xmlns:xlink="http://www.w3.org/1999/xlink" x="0px" y="0px"
	 viewBox="0 0 300 300" style="enable-background:new 0 0 300 300;" xml:space="preserve">
<style type="text/css">
	.st0{fill:#77F2C0;}
	.st1{fill:#63C69B;}
	.st2{fill:#62C49A;}
</style>
<g>
	<polygon class="st0" points="107.515,244.756 115.48,110.351 132.762,103.69 131.322,262.026 	"/>
	<path d="M132.255,104.422l-1.424,156.63l-22.801-16.54l7.93-133.811L132.255,104.422 M133.268,102.959L115,110l-8,135l24.814,18
		L133.268,102.959L133.268,102.959z"/>
</g>
<g>
	<polygon class="st0" points="167.238,103.549 184.521,109.366 192.484,244.755 168.678,261.921 	"/>
	<path d="M167.744,104.247l16.297,5.485l7.928,134.778l-22.801,16.44L167.744,104.247 M166.732,102.851l1.455,160.041L193,245
		l-8-136L166.732,102.851L166.732,102.851z"/>
</g>
<g>
	<polygon class="st1" points="132.318,262.5 133.764,103.459 166.236,103.459 167.682,262.5 	"/>
	<path d="M165.741,103.959L167.177,262h-34.355l1.437-158.041H165.741 M166.732,102.959h-33.463L131.814,263h36.373L166.732,102.959
		L166.732,102.959z"/>
</g>
<g>
	<path class="st2" d="M133.643,102.5l16.356-64.464l16.254,64.23c0.027,0.092-0.001,0.144-0.019,0.168
		c-0.019,0.025-0.06,0.066-0.131,0.066H133.643z"/>
	<path d="M149.999,40.071L165.669,102h-31.384L149.999,40.071 M150,36.919c-0.126,0-0.252,0.075-0.29,0.226l-16.615,65.483
		c-0.048,0.189,0.095,0.373,0.29,0.373h32.719c0.445,0,0.764-0.431,0.633-0.857L150.29,37.145
		C150.252,36.994,150.126,36.919,150,36.919L150,36.919z"/>
</g>
<g>
	<polygon class="st0" points="148.387,42.463 133.578,102.623 115.993,109.102 	"/>
	<path d="M146.773,46.925l-13.617,55.32l-16.17,5.958L146.773,46.925 M150,38l-35,72l19-7L150,38L150,38z"/>
</g>
<g>
	<polygon class="st0" points="166.42,102.608 151.579,41.393 184.042,108.173 	"/>
	<path d="M153.159,45.785l29.926,61.561l-16.245-5.13L153.159,45.785 M150,37l16,66l19,6L150,37L150,37z"/>
</g>
</svg>
